<svg width="400" height="400" viewBox="0 0 400 400" fill="none" xmlns="http://www.w3.org/2000/svg">
<path d="M331.702 148.383L251.704 147.79L252.296 67.7925L291.999 108.088L331.702 148.383Z" fill="#3BA1FF"/>
<path d="M172.261 72.1999C172.282 69.4385 174.537 67.2166 177.298 67.237L252.296 67.7925L251.704 147.79L183.706 147.287C177.078 147.238 171.746 141.825 171.795 135.198L172.261 72.1999Z" fill="#3BA1FF"/>
<path d="M251.704 147.79L331.702 148.383L331.391 190.332L331.146 223.381C331.126 226.142 328.871 228.364 326.109 228.344L263.111 227.877C256.484 227.828 251.151 222.416 251.2 215.788L251.704 147.79Z" fill="#85E2FF"/>
<path d="M331.702 148.383L331.391 190.332L291.703 148.087L331.702 148.383Z" fill="#3BA1FF"/>
<path d="M68 251.408L147.998 252L147.405 331.998L107.703 291.703L68 251.408Z" fill="#3BA1FF"/>
<path d="M227.44 327.591C227.42 330.352 225.165 332.574 222.403 332.554L147.405 331.998L147.998 252L215.996 252.504C222.623 252.553 227.956 257.965 227.907 264.592L227.44 327.591Z" fill="#3BA1FF"/>
<path d="M147.998 252L68 251.408L68.3107 209.458L68.5555 176.41C68.5759 173.649 70.831 171.427 73.5924 171.447L136.591 171.914C143.218 171.963 148.551 177.375 148.501 184.002L147.998 252Z" fill="#85E2FF"/>
<path d="M68 251.408L68.3107 209.458L107.999 251.704L68 251.408Z" fill="#3BA1FF"/>
</svg>
