<svg width="350" height="285" viewBox="0 0 350 285" fill="none" xmlns="http://www.w3.org/2000/svg">
<path d="M10 1H340C344.971 1 349 5.02944 349 10V275C349 279.971 344.971 284 340 284H10C5.02944 284 1 279.971 1 275V10C1 5.02943 5.02944 1 10 1Z" fill="#FBFBFB" stroke="#B1B1B1" stroke-width="2"/>
<ellipse cx="27.5" cy="28.4433" rx="7.5" ry="7.1134" fill="#00D816"/>
<ellipse cx="81.5" cy="28.4433" rx="7.5" ry="7.1134" fill="#FF3B3B"/>
<ellipse cx="54.5" cy="28.4433" rx="7.5" ry="7.1134" fill="#FFC700"/>
<rect x="20.5" y="59.5" width="309" height="205" rx="4.5" fill="white"/>
<rect x="20.5" y="59.5" width="309" height="205" rx="4.5" stroke="#B1B1B1"/>
<rect x="20.5" y="59.5" width="309" height="205" rx="4.5" stroke="black" stroke-opacity="0.2"/>
<line x1="39" y1="83.5" x2="71" y2="83.5" stroke="#969696" stroke-width="5"/>
<line x1="199" y1="118.5" x2="245" y2="118.5" stroke="#969696" stroke-width="5"/>
<line x1="39" y1="150.5" x2="85" y2="150.5" stroke="#969696" stroke-width="5"/>
<line x1="39" y1="134.5" x2="71" y2="134.5" stroke="#969696" stroke-width="5"/>
<line x1="189" y1="101.5" x2="221" y2="101.5" stroke="#969696" stroke-width="5"/>
<line x1="231" y1="101.5" x2="263" y2="101.5" stroke="#969696" stroke-width="5"/>
<line x1="116" y1="83.5" x2="148" y2="83.5" stroke="#969696" stroke-width="5"/>
<line x1="96" y1="150.5" x2="128" y2="150.5" stroke="#969696" stroke-width="5"/>
<line x1="64" y1="101.5" x2="179" y2="101.5" stroke="#969696" stroke-width="5"/>
<line x1="162" y1="83.5" x2="277" y2="83.5" stroke="#969696" stroke-width="5"/>
<line x1="142" y1="150.5" x2="257" y2="150.5" stroke="#969696" stroke-width="5"/>
<path d="M84.5 134.5H199.5" stroke="#969696" stroke-width="5"/>
<line x1="39" y1="118.5" x2="154" y2="118.5" stroke="#969696" stroke-width="5"/>
<line x1="82" y1="83.5" x2="104" y2="83.5" stroke="#969696" stroke-width="5"/>
<line x1="164" y1="118.5" x2="186" y2="118.5" stroke="#969696" stroke-width="5"/>
<line x1="40" y1="101.5" x2="54" y2="101.5" stroke="#969696" stroke-width="5"/>
<line x1="212" y1="134.5" x2="226" y2="134.5" stroke="#969696" stroke-width="5"/>
</svg>
