<svg width="350" height="285" viewBox="0 0 350 285" fill="none" xmlns="http://www.w3.org/2000/svg">
<path d="M10 1H340C344.971 1 349 5.02944 349 10V275C349 279.971 344.971 284 340 284H10C5.02944 284 1 279.971 1 275V10C1 5.02943 5.02944 1 10 1Z" fill="#FBFBFB" stroke="#B1B1B1" stroke-width="2"/>
<ellipse cx="28.5" cy="29.4433" rx="7.5" ry="7.1134" fill="#00D816"/>
<ellipse cx="82.5" cy="29.4433" rx="7.5" ry="7.1134" fill="#FF3B3B"/>
<ellipse cx="55.5" cy="29.4433" rx="7.5" ry="7.1134" fill="#FFC700"/>
<g opacity="0.8" filter="url(#filter0_i_49_90)">
<line y1="-1.5" x2="309.185" y2="-1.5" transform="matrix(0.999999 -0.00161465 0.00178825 0.999998 20.5331 87.4016)" stroke="black" stroke-width="3"/>
<line y1="-1.5" x2="308.702" y2="-1.5" transform="matrix(0.999999 -0.00161465 0.00178825 0.999998 20.7146 76.2202)" stroke="black" stroke-width="3"/>
<line y1="-1.5" x2="308.464" y2="-1.5" transform="matrix(0.999999 -0.00161465 0.00178825 0.999998 21.1854 98.461)" stroke="#A0A0A0" stroke-width="3"/>
<line y1="-1.5" x2="308.702" y2="-1.5" transform="matrix(0.999999 -0.00161465 0.00178825 0.999998 21.0636 109.582)" stroke="#A0A0A0" stroke-width="3"/>
<line y1="-1.5" x2="309.185" y2="-1.5" transform="matrix(0.999999 -0.00161465 0.00178825 0.999998 20.7996 120.826)" stroke="#A0A0A0" stroke-width="3"/>
<line y1="-1.5" x2="309.185" y2="-1.5" transform="matrix(0.999999 -0.00161465 0.00178825 0.999998 20.5587 131.776)" stroke="#A0A0A0" stroke-width="3"/>
<line y1="-1.5" x2="308.226" y2="-1.5" transform="matrix(0.999999 -0.00161465 0.00178825 0.999998 21.1625 143.33)" stroke="#A0A0A0" stroke-width="3"/>
<line y1="-1.5" x2="309.185" y2="-1.5" transform="matrix(0.999998 -0.00180144 0.00160282 0.999999 20 154.258)" stroke="#A0A0A0" stroke-width="3"/>
<line y1="-1.5" x2="309.185" y2="-1.5" transform="matrix(0.999999 -0.00161465 0.00178825 0.999998 20.6576 165.524)" stroke="#A0A0A0" stroke-width="3"/>
<line y1="-1.5" x2="309.185" y2="-1.5" transform="matrix(0.999999 -0.00161465 0.00178825 0.999998 20.5359 176.645)" stroke="#A0A0A0" stroke-width="3"/>
<line y1="-1.5" x2="308.702" y2="-1.5" transform="matrix(0.999999 -0.00161465 0.00178825 0.999998 20.9571 187.768)" stroke="#A0A0A0" stroke-width="3"/>
<line y1="-1.5" x2="309.185" y2="-1.5" transform="matrix(0.999999 -0.00161465 0.00178825 0.999998 20.8156 198.985)" stroke="#A0A0A0" stroke-width="3"/>
<line y1="-1.5" x2="309.185" y2="-1.5" transform="matrix(0.999999 -0.00161465 0.00178825 0.999998 20.694 210.107)" stroke="#A0A0A0" stroke-width="3"/>
<line y1="-1.5" x2="309.185" y2="-1.5" transform="matrix(0.999999 -0.00161465 0.00178825 0.999998 20.5723 221.228)" stroke="#A0A0A0" stroke-width="3"/>
<line y1="-1.5" x2="309.185" y2="-1.5" transform="matrix(0.999999 -0.00161465 0.00178825 0.999998 20.7996 232.265)" stroke="#A0A0A0" stroke-width="3"/>
<line y1="-1.5" x2="309.185" y2="-1.5" transform="matrix(0.999999 -0.00161465 0.00178825 0.999998 20.2665 243.409)" stroke="#A0A0A0" stroke-width="3"/>
<line y1="-1.5" x2="309.185" y2="-1.5" transform="matrix(0.999999 -0.00161465 0.00178825 0.999998 20.2665 254.553)" stroke="#A0A0A0" stroke-width="3"/>
<line y1="-1.5" x2="190.081" y2="-1.5" transform="matrix(0.00157349 0.999999 -0.999999 0.00112383 50.9185 76.1973)" stroke="#A0A0A0" stroke-width="3"/>
<line y1="-1.5" x2="189.842" y2="-1.5" transform="matrix(0.00157349 0.999999 -0.999999 0.00112383 81.837 75.9592)" stroke="#A0A0A0" stroke-width="3"/>
<line y1="-1.5" x2="189.842" y2="-1.5" transform="matrix(0.00157349 0.999999 -0.999999 0.00112383 112.755 75.9592)" stroke="#A0A0A0" stroke-width="3"/>
<line y1="-1.5" x2="190.46" y2="-1.5" transform="matrix(0.00157349 0.999999 -0.999999 0.00112383 143.674 75.9592)" stroke="#A0A0A0" stroke-width="3"/>
<line y1="-1.5" x2="190.46" y2="-1.5" transform="matrix(0.00157349 0.999999 -0.999999 0.00112383 174.592 75.9592)" stroke="#A0A0A0" stroke-width="3"/>
<line y1="-1.5" x2="190.46" y2="-1.5" transform="matrix(0.00139946 0.999999 -0.999999 0.0012636 205.511 75.7511)" stroke="#A0A0A0" stroke-width="3"/>
<line y1="-1.5" x2="190.46" y2="-1.5" transform="matrix(0.00157349 0.999999 -0.999999 0.00112383 236.429 75.9592)" stroke="#A0A0A0" stroke-width="3"/>
<line y1="-1.5" x2="190.081" y2="-1.5" transform="matrix(0.00157349 0.999999 -0.999999 0.00112383 267.348 75.9592)" stroke="#A0A0A0" stroke-width="3"/>
<line y1="-1.5" x2="190.557" y2="-1.5" transform="matrix(0.00157349 0.999999 -0.999999 0.00112383 298.266 75.9592)" stroke="#A0A0A0" stroke-width="3"/>
<rect x="21.7382" y="61.5" width="306.655" height="203.516" stroke="black" stroke-width="3"/>
<path d="M27.6621 66.114H29.1951C29.7597 66.114 30.1961 66.31 30.5041 66.702C30.8121 67.0893 30.9661 67.7077 30.9661 68.557C30.9661 69.4063 30.8121 70.027 30.5041 70.419C30.1961 70.8063 29.7597 71 29.1951 71H27.6621V66.114ZM29.1951 70.51C29.5451 70.51 29.8274 70.3887 30.0421 70.146C30.2567 69.9033 30.3641 69.5557 30.3641 69.103V68.011C30.3641 67.5583 30.2567 67.2107 30.0421 66.968C29.8274 66.7253 29.5451 66.604 29.1951 66.604H28.2221V70.51H29.1951ZM34.147 71C33.8017 71 33.629 70.8273 33.629 70.482V70.412H33.559C33.4983 70.6313 33.3863 70.7993 33.223 70.916C33.0643 71.028 32.873 71.084 32.649 71.084C32.299 71.084 32.0377 70.9953 31.865 70.818C31.6923 70.6407 31.606 70.3793 31.606 70.034C31.606 69.698 31.7157 69.432 31.935 69.236C32.159 69.04 32.5067 68.942 32.978 68.942H33.629V68.543C33.629 68.277 33.5683 68.081 33.447 67.955C33.3303 67.829 33.1437 67.766 32.887 67.766C32.677 67.766 32.5067 67.8127 32.376 67.906C32.25 67.9947 32.1403 68.1253 32.047 68.298L31.732 68.004C31.8253 67.808 31.9747 67.6447 32.18 67.514C32.3853 67.3787 32.628 67.311 32.908 67.311C33.3187 67.311 33.629 67.4113 33.839 67.612C34.0537 67.808 34.161 68.0997 34.161 68.487V70.531H34.525V71H34.147ZM32.782 70.622C32.9033 70.622 33.0153 70.601 33.118 70.559C33.2253 70.517 33.3163 70.4633 33.391 70.398C33.4657 70.328 33.524 70.251 33.566 70.167C33.608 70.0783 33.629 69.9873 33.629 69.894V69.348H32.964C32.684 69.348 32.4787 69.3947 32.348 69.488C32.222 69.5813 32.159 69.7167 32.159 69.894V70.09C32.159 70.272 32.215 70.4073 32.327 70.496C32.439 70.58 32.5907 70.622 32.782 70.622ZM35.97 71C35.7786 71 35.6386 70.958 35.55 70.874C35.466 70.7853 35.424 70.6453 35.424 70.454V67.857H34.892V67.388H35.207C35.3143 67.388 35.3843 67.3623 35.417 67.311C35.4543 67.255 35.473 67.1733 35.473 67.066V66.394H35.956V67.388H36.656V67.857H35.956V70.531H36.621V71H35.97ZM39.7525 71C39.4071 71 39.2345 70.8273 39.2345 70.482V70.412H39.1645C39.1038 70.6313 38.9918 70.7993 38.8285 70.916C38.6698 71.028 38.4785 71.084 38.2545 71.084C37.9045 71.084 37.6431 70.9953 37.4705 70.818C37.2978 70.6407 37.2115 70.3793 37.2115 70.034C37.2115 69.698 37.3211 69.432 37.5405 69.236C37.7645 69.04 38.1121 68.942 38.5835 68.942H39.2345V68.543C39.2345 68.277 39.1738 68.081 39.0525 67.955C38.9358 67.829 38.7491 67.766 38.4925 67.766C38.2825 67.766 38.1121 67.8127 37.9815 67.906C37.8555 67.9947 37.7458 68.1253 37.6525 68.298L37.3375 68.004C37.4308 67.808 37.5801 67.6447 37.7855 67.514C37.9908 67.3787 38.2335 67.311 38.5135 67.311C38.9241 67.311 39.2345 67.4113 39.4445 67.612C39.6591 67.808 39.7665 68.0997 39.7665 68.487V70.531H40.1305V71H39.7525ZM38.3875 70.622C38.5088 70.622 38.6208 70.601 38.7235 70.559C38.8308 70.517 38.9218 70.4633 38.9965 70.398C39.0711 70.328 39.1295 70.251 39.1715 70.167C39.2135 70.0783 39.2345 69.9873 39.2345 69.894V69.348H38.5695C38.2895 69.348 38.0841 69.3947 37.9535 69.488C37.8275 69.5813 37.7645 69.7167 37.7645 69.894V70.09C37.7645 70.272 37.8205 70.4073 37.9325 70.496C38.0445 70.58 38.1961 70.622 38.3875 70.622ZM40.8543 65.82H41.3863V67.976H41.4563C41.5263 67.738 41.6383 67.5677 41.7923 67.465C41.9509 67.3577 42.1423 67.304 42.3663 67.304C42.5809 67.304 42.7699 67.3483 42.9333 67.437C43.0966 67.5257 43.2343 67.6517 43.3463 67.815C43.4583 67.9783 43.5423 68.1767 43.5983 68.41C43.6543 68.6433 43.6823 68.9047 43.6823 69.194C43.6823 69.4833 43.6543 69.7447 43.5983 69.978C43.5423 70.2113 43.4583 70.4097 43.3463 70.573C43.2343 70.7363 43.0966 70.8623 42.9333 70.951C42.7699 71.0397 42.5809 71.084 42.3663 71.084C42.1423 71.084 41.9509 71.0327 41.7923 70.93C41.6383 70.8227 41.5263 70.65 41.4563 70.412H41.3863V71H40.8543V65.82ZM42.2053 70.608C42.4993 70.608 42.7233 70.517 42.8773 70.335C43.0313 70.1483 43.1083 69.8893 43.1083 69.558V68.83C43.1083 68.4987 43.0313 68.242 42.8773 68.06C42.7233 67.8733 42.4993 67.78 42.2053 67.78C42.0933 67.78 41.9859 67.7963 41.8833 67.829C41.7853 67.8617 41.6989 67.9083 41.6243 67.969C41.5543 68.0297 41.4959 68.102 41.4493 68.186C41.4073 68.27 41.3863 68.3633 41.3863 68.466V69.922C41.3863 70.0247 41.4073 70.118 41.4493 70.202C41.4959 70.286 41.5543 70.3583 41.6243 70.419C41.6989 70.4797 41.7853 70.5263 41.8833 70.559C41.9859 70.5917 42.0933 70.608 42.2053 70.608ZM46.8072 71C46.4618 71 46.2892 70.8273 46.2892 70.482V70.412H46.2192C46.1585 70.6313 46.0465 70.7993 45.8832 70.916C45.7245 71.028 45.5332 71.084 45.3092 71.084C44.9592 71.084 44.6978 70.9953 44.5252 70.818C44.3525 70.6407 44.2662 70.3793 44.2662 70.034C44.2662 69.698 44.3758 69.432 44.5952 69.236C44.8192 69.04 45.1668 68.942 45.6382 68.942H46.2892V68.543C46.2892 68.277 46.2285 68.081 46.1072 67.955C45.9905 67.829 45.8038 67.766 45.5472 67.766C45.3372 67.766 45.1668 67.8127 45.0362 67.906C44.9102 67.9947 44.8005 68.1253 44.7072 68.298L44.3922 68.004C44.4855 67.808 44.6348 67.6447 44.8402 67.514C45.0455 67.3787 45.2882 67.311 45.5682 67.311C45.9788 67.311 46.2892 67.4113 46.4992 67.612C46.7138 67.808 46.8212 68.0997 46.8212 68.487V70.531H47.1852V71H46.8072ZM45.4422 70.622C45.5635 70.622 45.6755 70.601 45.7782 70.559C45.8855 70.517 45.9765 70.4633 46.0512 70.398C46.1258 70.328 46.1842 70.251 46.2262 70.167C46.2682 70.0783 46.2892 69.9873 46.2892 69.894V69.348H45.6242C45.3442 69.348 45.1388 69.3947 45.0082 69.488C44.8822 69.5813 44.8192 69.7167 44.8192 69.894V70.09C44.8192 70.272 44.8752 70.4073 44.9872 70.496C45.0992 70.58 45.2508 70.622 45.4422 70.622ZM48.91 71.084C48.6113 71.084 48.3546 71.0233 48.14 70.902C47.93 70.7807 47.7503 70.6127 47.601 70.398L47.972 70.09C48.098 70.2673 48.2333 70.4027 48.378 70.496C48.5273 70.5893 48.7046 70.636 48.91 70.636C49.12 70.636 49.2856 70.5847 49.407 70.482C49.533 70.3747 49.596 70.223 49.596 70.027C49.596 69.8683 49.5563 69.74 49.477 69.642C49.3976 69.544 49.2506 69.4763 49.036 69.439L48.763 69.39C48.413 69.3247 48.1516 69.215 47.979 69.061C47.811 68.907 47.727 68.6737 47.727 68.361C47.727 68.179 47.755 68.0227 47.811 67.892C47.867 67.7567 47.9463 67.647 48.049 67.563C48.1516 67.4743 48.273 67.4113 48.413 67.374C48.5576 67.332 48.714 67.311 48.882 67.311C49.1526 67.311 49.379 67.36 49.561 67.458C49.7476 67.5513 49.9086 67.689 50.044 67.871L49.701 68.186C49.6216 68.074 49.5166 67.976 49.386 67.892C49.2553 67.8033 49.0873 67.759 48.882 67.759C48.4573 67.759 48.245 67.9527 48.245 68.34C48.245 68.5173 48.2893 68.648 48.378 68.732C48.4713 68.8113 48.6206 68.8697 48.826 68.907L49.099 68.956C49.4676 69.0213 49.729 69.1357 49.883 69.299C50.037 69.4623 50.114 69.684 50.114 69.964C50.114 70.314 50.0113 70.5893 49.806 70.79C49.6053 70.986 49.3066 71.084 48.91 71.084ZM52.2171 71.084C52.0071 71.084 51.8111 71.049 51.6291 70.979C51.4471 70.909 51.2908 70.797 51.1601 70.643C51.0295 70.489 50.9268 70.293 50.8521 70.055C50.7775 69.817 50.7401 69.53 50.7401 69.194C50.7401 68.858 50.7775 68.571 50.8521 68.333C50.9268 68.095 51.0295 67.899 51.1601 67.745C51.2908 67.591 51.4471 67.479 51.6291 67.409C51.8111 67.339 52.0071 67.304 52.2171 67.304C52.4271 67.304 52.6185 67.339 52.7911 67.409C52.9685 67.479 53.1178 67.591 53.2391 67.745C53.3605 67.899 53.4538 68.095 53.5191 68.333C53.5891 68.571 53.6241 68.858 53.6241 69.194V69.327H51.3071V69.558C51.3071 69.9127 51.3865 70.1787 51.5451 70.356C51.7085 70.5287 51.9325 70.615 52.2171 70.615C52.4598 70.615 52.6581 70.5637 52.8121 70.461C52.9661 70.3537 53.0875 70.195 53.1761 69.985L53.5401 70.251C53.4281 70.4983 53.2625 70.699 53.0431 70.853C52.8285 71.007 52.5531 71.084 52.2171 71.084ZM52.2171 67.752C51.9278 67.752 51.7038 67.843 51.5451 68.025C51.3865 68.207 51.3071 68.4753 51.3071 68.83V68.921H53.0571V68.83C53.0571 68.1113 52.7771 67.752 52.2171 67.752Z" fill="black"/>
</g>
<line x1="52.5846" y1="75.7197" x2="52.5846" y2="87.3938" stroke="black" stroke-width="3"/>
<line x1="83.431" y1="75.4827" x2="83.431" y2="87.1568" stroke="black" stroke-width="3"/>
<line x1="114.397" y1="75.4827" x2="114.397" y2="87.1568" stroke="black" stroke-width="3"/>
<line x1="145.362" y1="75.4827" x2="145.362" y2="87.1568" stroke="black" stroke-width="3"/>
<line x1="176.328" y1="75.4827" x2="176.328" y2="87.1568" stroke="black" stroke-width="3"/>
<line x1="207.055" y1="75.2445" x2="207.055" y2="86.9186" stroke="black" stroke-width="3"/>
<line x1="238.02" y1="75.2445" x2="238.02" y2="86.9186" stroke="black" stroke-width="3"/>
<line x1="268.748" y1="75.2445" x2="268.748" y2="86.9186" stroke="black" stroke-width="3"/>
<line x1="299.713" y1="75.2445" x2="299.713" y2="86.9186" stroke="black" stroke-width="3"/>
<path d="M63.709 68.4276L59.0213 71.8078L59.0544 65.0021L63.709 68.4276Z" fill="#FF8A00"/>
<path d="M63.709 68.4276L59.0213 71.8078L59.0544 65.0021L63.709 68.4276Z" fill="#FF8A00"/>
<path d="M61.4462 68.4276L58.5878 70.3873V66.4679L61.4462 68.4276Z" fill="white"/>
<defs>
<filter id="filter0_i_49_90" x="19.9952" y="60" width="310.005" height="210.516" filterUnits="userSpaceOnUse" color-interpolation-filters="sRGB">
<feFlood flood-opacity="0" result="BackgroundImageFix"/>
<feBlend mode="normal" in="SourceGraphic" in2="BackgroundImageFix" result="shape"/>
<feColorMatrix in="SourceAlpha" type="matrix" values="0 0 0 0 0 0 0 0 0 0 0 0 0 0 0 0 0 0 127 0" result="hardAlpha"/>
<feOffset dy="4"/>
<feGaussianBlur stdDeviation="2"/>
<feComposite in2="hardAlpha" operator="arithmetic" k2="-1" k3="1"/>
<feColorMatrix type="matrix" values="0 0 0 0 0 0 0 0 0 0 0 0 0 0 0 0 0 0 0.25 0"/>
<feBlend mode="normal" in2="shape" result="effect1_innerShadow_49_90"/>
</filter>
</defs>
</svg>
